<svg xmlns="http://www.w3.org/2000/svg" width="390" height="431.229" viewBox="0 0 390 431.229">
    <defs>
        <filter id="빼기_6" width="390" height="431.239" x="1" y="0" filterUnits="userSpaceOnUse">
            <feOffset dy="4"/>
            <feGaussianBlur result="blur" stdDeviation="5"/>
            <feFlood flood-color="#333" flood-opacity=".2"/>
            <feComposite in2="blur" operator="in"/>
            <feComposite in="SourceGraphic"/>
        </filter>
        <filter id="빼기_7" width="390" height="431.229" x="0" y="0" filterUnits="userSpaceOnUse">
            <feOffset dy="4"/>
            <feGaussianBlur result="blur-2" stdDeviation="5"/>
            <feFlood flood-color="#333" flood-opacity=".2"/>
            <feComposite in2="blur-2" operator="in"/>
            <feComposite in="SourceGraphic"/>
        </filter>
        <linearGradient id="linear-gradient" x1=".5" x2=".5" y2="1" gradientUnits="objectBoundingBox">
            <stop offset="0" stop-color="#ffe8f6"/>
            <stop offset="1" stop-color="#fff5fb"/>
        </linearGradient>
        <clipPath id="clip-path"/>
        <style>
        </style>
    </defs>
    <g id="bg_greeting" transform="translate(16 11)">
        <g filter="url(#빼기_7)" transform="matrix(1, 0, 0, 1, -16, -11)">
            <path id="빼기_7-2" fill="url(#linear-gradient)" d="M-100 1400.229a60.167 60.167 0 0 0-60-59.506h-240a59.624 59.624 0 0 1-23.355-4.715 59.8 59.8 0 0 1-19.072-12.858 59.8 59.8 0 0 1-12.859-19.072 59.624 59.624 0 0 1-4.714-23.355V999h360v401.229z" transform="translate(475 -988)"/>
        </g>
        <ellipse id="타원_120" cx="22.5" cy="22" fill="#f8d2f6" opacity="0.8" rx="22.5" ry="22" transform="translate(248 134)"/>
        <circle id="타원_122" cx="44.5" cy="44.5" r="44.5" fill="#ffd1e2" opacity="0.5" transform="translate(271 92)"/>
    </g>
</svg>
